<svg viewBox="0 0 28 28" xmlns="http://www.w3.org/2000/svg">
  <path d="M3.167 1.75C2.38421 1.75 1.75 2.38421 1.75 3.167V24.833C1.75 25.2088 1.89929 25.5692 2.16503 25.835C2.43077 26.1007 2.79119 26.25 3.167 26.25H24.833C25.6158 26.25 26.25 25.6158 26.25 24.833V3.167C26.25 2.38421 25.6158 1.75 24.833 1.75H3.167ZM0.25 3.167C0.25 1.55579 1.55579 0.25 3.167 0.25H24.833C26.4442 0.25 27.75 1.55579 27.75 3.167V24.833C27.75 26.4442 26.4442 27.75 24.833 27.75H3.167C2.39336 27.75 1.65141 27.4427 1.10437 26.8956C0.557326 26.3486 0.25 25.6066 0.25 24.833V3.167Z"/>
  <path d="M9.48889 7.74133C9.86517 7.45281 10.4004 7.3634 10.8873 7.63501L10.8921 7.63763L10.8921 7.63765L19.0771 12.2806C19.0954 12.2911 19.1133 12.3022 19.1307 12.3142C19.3375 12.4558 19.5067 12.6456 19.6236 12.8673C19.7405 13.089 19.8016 13.3359 19.8016 13.5865C19.8016 13.8371 19.7405 14.084 19.6236 14.3057C19.5067 14.5274 19.3375 14.7173 19.1307 14.8588C19.1132 14.8708 19.0953 14.882 19.0769 14.8925L10.8919 19.5325L10.8911 19.5329C10.4047 19.8079 9.86797 19.7209 9.49003 19.4323C9.12546 19.1539 8.917 18.706 8.917 18.227V8.947C8.917 8.46769 9.12524 8.02016 9.48889 7.74133ZM10.4227 8.91002C10.4228 8.91003 10.4226 8.91044 10.4221 8.91119ZM10.417 9.0927V18.0774L18.2921 13.6131C18.2938 13.6109 18.2954 13.6086 18.2967 13.6061C18.2999 13.6 18.3016 13.5933 18.3016 13.5865C18.3016 13.5797 18.2999 13.573 18.2967 13.5669C18.2954 13.5644 18.2938 13.5621 18.292 13.5599L10.417 9.0927ZM10.4218 18.2616C10.4223 18.2624 10.4225 18.2628 10.4225 18.2628Z"/>
</svg>
