<svg viewBox="0 0 140 140" xmlns="http://www.w3.org/2000/svg">
  <path fill-rule="evenodd" d="M66.234 0.873086C67.3812 0.218676 68.6792 -0.125488 70 -0.125488C71.3207 -0.125488 72.6187 0.218676 73.766 0.873086C74.9133 1.5275 75.8702 2.46957 76.5425 3.60643C76.5576 3.63196 76.5724 3.65764 76.587 3.68347L90.2799 27.9521C90.9439 29.0968 91.2978 30.3953 91.3064 31.7191C91.315 33.0592 90.9695 34.3778 90.3048 35.5415C89.6401 36.7051 88.6797 37.6725 87.5209 38.3457C86.3622 39.0188 85.0461 39.3739 83.706 39.375L83.7025 39.375H56.2952C54.9552 39.3743 53.6393 39.0194 52.4807 38.3463C51.3221 37.6731 50.362 36.7056 49.6978 35.5418C49.0336 34.3781 48.6889 33.0594 48.6985 31.7195C48.708 30.3969 49.0625 29.0999 49.7265 27.9567L63.4124 3.68456C63.4271 3.65836 63.4422 3.63232 63.4575 3.60643C64.1298 2.46957 65.0867 1.5275 66.234 0.873086ZM70.0003 9.81586L81.7414 30.625H58.2671L70.0003 9.81586Z"/>
  <path d="M33.3703 55.0435C34.6965 54.8608 36.0473 55.031 37.2867 55.5369C38.526 56.0429 39.61 56.8667 40.4294 57.9254C41.2487 58.984 41.7744 60.2399 41.9535 61.5666C42.1325 62.8932 41.9586 64.2436 41.4492 65.4815L41.4418 65.4993L36.1553 78.188L36.151 78.1984L30.9025 90.8882C30.3883 92.1253 29.5568 93.2049 28.4919 94.0177C27.427 94.8306 26.1664 95.3481 24.8375 95.5179C23.5086 95.6876 22.1585 95.5037 20.9234 94.9846C19.6883 94.4655 18.6121 93.6297 17.8035 92.5616L17.797 92.5529L1.51927 70.9406C1.51746 70.9382 1.51566 70.9359 1.51386 70.9335C0.715262 69.878 0.206071 68.6323 0.0367523 67.3196C-0.132949 66.0038 0.0446654 64.6666 0.551939 63.4408C1.05922 62.215 1.87849 61.1433 2.9283 60.3323C3.9763 59.5227 5.21762 59.0009 6.52926 58.8187C6.53154 58.8184 6.53381 58.8181 6.53609 58.8178L33.3581 55.0452L33.3703 55.0435ZM32.592 63.9891L9.66633 67.2136L23.5831 85.6912L28.074 74.8333L32.592 63.9891Z"/>
  <path d="M27.2084 77.0452C27.9309 74.7395 30.3857 73.456 32.6914 74.1785C45.2856 78.1246 55.7959 84.0328 63.1423 92.9371C70.5406 101.904 74.375 113.479 74.375 128.048V135.631C74.375 138.047 72.4162 140.006 70 140.006C67.5837 140.006 65.625 138.047 65.625 135.631V128.048C65.625 115.089 62.2523 105.608 56.3929 98.5056C50.4815 91.3406 41.6835 86.1654 30.0752 82.5282C27.7695 81.8058 26.486 79.351 27.2084 77.0452Z"/>
  <path fill-rule="evenodd" d="M107.408 63.9891L130.334 67.2136L116.417 85.6912L111.93 74.8437L107.408 63.9891ZM102.713 55.5369C103.953 55.031 105.304 54.8608 106.63 55.0435L106.642 55.0452L133.464 58.8178C133.466 58.8181 133.468 58.8184 133.471 58.8187C134.782 59.0009 136.024 59.5227 137.072 60.3323C138.122 61.1434 138.941 62.215 139.448 63.4408C139.955 64.6666 140.133 66.0038 139.963 67.3196C139.794 68.6324 139.285 69.8781 138.486 70.9336C138.484 70.936 138.482 70.9383 138.481 70.9406L122.203 92.5529L122.196 92.5616C121.388 93.6297 120.312 94.4655 119.077 94.9846C117.842 95.5037 116.491 95.6876 115.162 95.5179C113.834 95.3481 112.573 94.8306 111.508 94.0177C110.443 93.2048 109.612 92.1253 109.097 90.8882L103.849 78.1984L103.845 78.188L98.5581 65.4993L98.5508 65.4815C98.0414 64.2435 97.8674 62.8932 98.0465 61.5666C98.2255 60.2399 98.7512 58.984 99.5706 57.9254C100.39 56.8667 101.474 56.0429 102.713 55.5369Z"/>
  <path d="M112.792 77.0452C113.514 79.351 112.23 81.8058 109.925 82.5282C98.3165 86.1654 89.5184 91.3406 83.6071 98.5056C77.7477 105.608 74.375 115.089 74.375 128.048V135.631C74.375 138.047 72.4162 140.006 70 140.006C67.5838 140.006 65.625 138.047 65.625 135.631V128.048C65.625 113.479 69.4594 101.904 76.8577 92.9371C84.2041 84.0328 94.7144 78.1246 107.309 74.1785C109.614 73.456 112.069 74.7395 112.792 77.0452Z"/>
  <path d="M70 30.625C72.4162 30.625 74.375 32.5838 74.375 35V128.048C74.375 130.464 72.4162 132.423 70 132.423C67.5838 132.423 65.625 130.464 65.625 128.048V35C65.625 32.5838 67.5838 30.625 70 30.625Z"/>
</svg>
