<svg viewBox="0 0 24 24" xmlns="http://www.w3.org/2000/svg">
  <path d="M11.2665,6.97250001 C8.78128644,6.97250001 6.7665,8.98728645 6.7665,11.4725 C6.7665,13.9577136 8.78128644,15.9725 11.2665,15.9725 C11.4654124,15.9725 11.6561778,15.8934824 11.7968301,15.7528301 L15.5468301,12.0028301 C15.6874824,11.8621778 15.7665,11.6714124 15.7665,11.4725 C15.7665,8.98728645 13.7517136,6.97250001 11.2665,6.97250001 Z M11.442766,8.47759295 C12.9008688,8.56208448 14.079678,9.68806252 14.2463158,11.1226492 L14.251,11.177 L10.971,14.457 L10.9166492,14.4523159 C9.42467904,14.2790125 8.2665,13.0109446 8.2665,11.4725 C8.2665,9.81571357 9.60971356,8.47250001 11.2665,8.47250001 L11.442766,8.47759295 Z"></path>
  <path d="M16.5701699,0.659169925 L14.4481699,2.78116993 C13.5703521,3.6589877 13.5703521,5.08351217 14.4477172,5.96237702 L16.57042,8.08308008 C17.4476383,8.96179883 18.8728614,8.96179883 19.7518301,8.0828301 L21.8728301,5.9618301 C22.7517988,5.0843617 22.7517988,3.65913866 21.8728301,2.78016993 L19.7522828,0.659623005 C18.8743617,-0.219798807 17.4491386,-0.219798807 16.5701699,0.659169925 Z M18.6907172,1.71937702 L20.8121699,3.8408301 C21.1052012,4.13386136 21.1052012,4.60863832 20.812623,4.90071723 L18.6911699,7.02216993 C18.3981386,7.31520119 17.9233617,7.31520119 17.6312828,7.022623 L15.50858,4.90191995 C15.2166479,4.60948785 15.2166479,4.13401233 15.5088301,3.8418301 L17.6308301,1.7198301 C17.9238614,1.42679883 18.3986383,1.42679883 18.6907172,1.71937702 Z"></path>
  <path d="M2.78016991,14.6551699 L0.659169914,16.7761699 C-0.219723305,17.6550631 -0.219723305,19.0789369 0.659169914,19.9578301 L2.78016991,22.0788301 C3.65763831,22.9577988 5.08286135,22.9577988 5.96183009,22.0788301 L8.08283009,19.9578301 C8.96179882,19.0803617 8.96179882,17.6551387 8.08283009,16.7761699 L5.96228278,14.655623 C5.08436169,13.7762012 3.65913865,13.7762012 2.78016991,14.6551699 Z M4.90071722,15.715377 L7.02216991,17.8368301 C7.31520118,18.1298614 7.31520118,18.6046383 7.02262299,18.8967172 L4.90116991,21.0181699 C4.60813865,21.3112012 4.13336169,21.3112012 3.84128278,21.018623 L1.71983009,18.8971699 C1.4267233,18.6040631 1.4267233,18.1299369 1.71983009,17.8368301 L3.84083009,15.7158301 C4.13386135,15.4227988 4.60863831,15.4227988 4.90071722,15.715377 Z"></path>
  <path d="M6.49316991,6.69916993 C6.75943648,6.43290336 7.17610016,6.40869731 7.46971165,6.62655177 L7.55383009,6.69916993 L9.14483009,8.29016993 C9.4377233,8.58306314 9.4377233,9.05793688 9.14483009,9.3508301 C8.87856352,9.61709666 8.46189984,9.64130271 8.16828835,9.42344825 L8.08416991,9.3508301 L6.49316991,7.7598301 C6.2002767,7.46693688 6.2002767,6.99206314 6.49316991,6.69916993 Z"></path>
  <path d="M16.2627757,13.5044207 C16.401443,13.1141076 16.8302663,12.9101085 17.2205793,13.0487758 C17.6108924,13.187443 17.8148915,13.6162663 17.6762243,14.0065793 C17.0718626,15.7077031 15.7341534,17.0478674 14.0339928,17.6557205 C13.643958,17.7951684 13.2147274,17.5920276 13.0752795,17.2019928 C12.9358316,16.811958 13.1389724,16.3827274 13.5290072,16.2432795 C14.805078,15.7870499 15.8092196,14.7810654 16.2627757,13.5044207 Z"></path>
  <path d="M20.1768774,12.6558745 L20.2783258,12.6664733 C20.6864791,12.7370695 20.960123,13.1251727 20.8895268,13.5333259 C20.2405225,17.2855521 17.3020071,20.2234438 13.5493258,20.8725268 C13.1411726,20.943123 12.7530695,20.6694791 12.6824732,20.2613259 C12.611877,19.8531727 12.8855209,19.4650695 13.2936742,19.3944733 C16.4215108,18.8534666 18.870567,16.4049302 19.4114732,13.2776742 C19.4761865,12.9035337 19.8076937,12.6424184 20.1768774,12.6558745 Z"></path>
  <path d="M23.294138,11.9077706 C23.7076498,11.9318712 24.02333,12.2866262 23.9992294,12.700138 C23.640836,18.8493575 18.6862174,23.7283453 12.5325819,23.9918135 C12.1187475,24.0095319 11.7689048,23.6884163 11.7511865,23.2745819 C11.7334681,22.8607475 12.0545837,22.5109048 12.4684181,22.4931865 C17.8528839,22.2626503 22.1881699,17.9935412 22.5017706,12.612862 C22.5258712,12.1993502 22.8806262,11.88367 23.294138,11.9077706 Z"></path>
</svg>
