<svg viewBox="0 0 24 24" xmlns="http://www.w3.org/2000/svg">
  <path d="M21,0 C22.6572136,0 24,1.34278644 24,3 C24,4.65721356 22.6572136,6 21,6 C20.4439832,6 19.9233611,5.84884384 19.4769733,5.58537098 L17.168936,7.89388455 C17.6922469,8.62926976 18,9.52870666 18,10.5 C18,11.0760656 17.8917456,11.6268552 17.694471,12.1331347 L19.0401587,13.4783393 C19.5658222,13.024455 20.2507779,12.75 21,12.75 C22.6572136,12.75 24,14.0927864 24,15.75 C24,17.4072136 22.6572136,18.75 21,18.75 C19.3427864,18.75 18,17.4072136 18,15.75 C18,15.394124 18.0619223,15.0527478 18.1755833,14.736055 L16.8938603,13.4549934 C16.2247223,14.2228576 15.2992682,14.7615223 14.2508526,14.9376333 L14.2513696,18.0948127 C15.5447915,18.4282066 16.5,19.6022674 16.5,21 C16.5,22.6572136 15.1572136,24 13.5,24 C11.8427864,24 10.5,22.6572136 10.5,21 C10.5,19.6019065 11.4557018,18.4276003 12.7496323,18.0945546 L12.7501441,14.9378006 C12.0664743,14.8231173 11.435066,14.5542696 10.8928891,14.1682274 L5.58477828,19.4759695 C5.84861713,19.9225806 6,20.4435664 6,21 C6,22.6572136 4.65721356,24 3,24 C1.34278644,24 0,22.6572136 0,21 C0,19.3427864 1.34278644,18 3,18 C3.55643363,18 4.07741942,18.1513829 4.52403049,18.4152217 L9.83177261,13.1071109 C9.3080309,12.371542 9,11.4717317 9,10.5 C9,10.1538453 9.03908788,9.81681703 9.11309047,9.49308853 L5.75714938,7.47994111 C5.22559766,7.95867323 4.5219074,8.25 3.75,8.25 C2.09278644,8.25 0.75,6.90721356 0.75,5.25 C0.75,3.59278644 2.09278644,2.25 3.75,2.25 C5.40721356,2.25 6.75,3.59278644 6.75,5.25 C6.75,5.59254012 6.69263158,5.92164685 6.58697595,6.22823896 L9.69647395,8.09414993 C10.4942824,6.83552455 11.899599,6 13.5,6 C14.47217,6 15.3723537,6.30830885 16.1081062,6.83248146 L18.4152217,4.52403049 C18.1513829,4.07741942 18,3.55643363 18,3 C18,1.34278644 19.3427864,0 21,0 Z M13.5,19.5 C12.6712136,19.5 12,20.1712136 12,21 C12,21.8287864 12.6712136,22.5 13.5,22.5 C14.3287864,22.5 15,21.8287864 15,21 C15,20.1712136 14.3287864,19.5 13.5,19.5 Z M3,19.5 C2.17121356,19.5 1.5,20.1712136 1.5,21 C1.5,21.8287864 2.17121356,22.5 3,22.5 C3.82878644,22.5 4.5,21.8287864 4.5,21 C4.5,20.1712136 3.82878644,19.5 3,19.5 Z M21,14.25 C20.1712136,14.25 19.5,14.9212136 19.5,15.75 C19.5,16.5787864 20.1712136,17.25 21,17.25 C21.8287864,17.25 22.5,16.5787864 22.5,15.75 C22.5,14.9212136 21.8287864,14.25 21,14.25 Z M13.5,7.5 C11.8432136,7.5 10.5,8.84321356 10.5,10.5 C10.5,11.3140936 10.8243102,12.052477 11.3507763,12.5929959 C11.3621192,12.5999596 11.3718206,12.6091604 11.3813301,12.6186699 L11.4060222,12.6482668 C11.9466286,13.1752968 12.6854133,13.5 13.5,13.5 C15.1567864,13.5 16.5,12.1567864 16.5,10.5 C16.5,9.67900315 16.1701663,8.93500589 15.6357873,8.39329653 C15.6302274,8.38976242 15.6254247,8.38508485 15.6206699,8.38033009 L15.6076793,8.36517576 C15.0658878,7.83022999 14.3214899,7.5 13.5,7.5 Z M3.75,3.75 C2.92121356,3.75 2.25,4.42121356 2.25,5.25 C2.25,6.07878644 2.92121356,6.75 3.75,6.75 C4.57878644,6.75 5.25,6.07878644 5.25,5.25 C5.25,4.42121356 4.57878644,3.75 3.75,3.75 Z M21,1.5 C20.1712136,1.5 19.5,2.17121356 19.5,3 C19.5,3.41134621 19.6653448,3.78387638 19.9332351,4.05479133 C19.9368819,4.05524895 19.9391112,4.05745103 19.9413301,4.05966991 C20.2170435,4.33506324 20.5891616,4.5 21,4.5 C21.8287864,4.5 22.5,3.82878644 22.5,3 C22.5,2.17121356 21.8287864,1.5 21,1.5 Z"></path>
</svg>
