<svg width="238" height="256" viewBox="0 0 238 256" fill="none" xmlns="http://www.w3.org/2000/svg">
<path d="M119.222 255.177C112.164 255.177 105.107 253.437 98.8021 249.957L21.7806 207.45C8.88394 200.383 0.859375 186.995 0.859375 172.577V109.048C0.859375 93.174 14.1142 80.2479 30.45 80.2479C46.7857 80.2479 60.0047 93.174 60.0406 109.048V146.867C60.0406 149.815 62.6915 152.229 65.9874 152.229C69.2832 152.229 71.9341 149.815 71.9341 146.867V109.083C71.9341 93.2095 85.189 80.2834 101.525 80.2834C117.86 80.2834 131.079 93.2095 131.115 109.083V146.903C131.115 149.886 133.802 152.265 137.062 152.265C140.322 152.265 143.009 149.85 143.009 146.903V109.154C143.009 93.2806 156.264 80.3544 172.599 80.3544C188.935 80.3544 202.154 93.2806 202.19 109.154V146.974C202.19 149.921 204.841 152.336 208.137 152.336C211.433 152.336 214.084 149.921 214.084 146.974V83.3729C214.084 77.478 210.716 71.9382 205.307 68.9553L128.285 26.4482C122.768 23.4297 115.962 23.4297 110.445 26.4482L39.9433 65.2621C34.2473 68.4226 27.0467 66.363 23.8584 60.7166C20.67 55.0703 22.7478 47.9325 28.4438 44.772L98.8021 5.99361C111.376 -0.96662 127.031 -0.96662 139.641 5.99361L216.663 48.5007C229.56 55.603 237.584 68.9908 237.584 83.4084V146.974C237.584 162.847 224.329 175.773 207.994 175.773C191.658 175.773 178.439 162.847 178.403 146.974V109.154C178.403 106.207 175.752 103.792 172.456 103.792C169.16 103.792 166.509 106.207 166.509 109.154V146.903C166.509 162.776 153.255 175.702 136.919 175.702C120.583 175.702 107.364 162.776 107.328 146.903V109.083C107.328 106.1 104.641 103.721 101.381 103.721C98.1215 103.721 95.4347 106.136 95.4347 109.083V146.867C95.4347 162.741 82.1798 175.667 65.8441 175.667C49.5083 175.667 36.2893 162.741 36.2535 146.867V109.048C36.2535 106.1 33.6025 103.685 30.3067 103.685C27.0109 103.685 24.3599 106.1 24.3599 109.048V172.577C24.3599 178.472 27.7274 184.012 33.1368 186.995L110.158 229.502C115.675 232.521 122.482 232.521 127.999 229.502L198.357 190.688C204.053 187.528 211.254 189.587 214.442 195.234C217.63 200.88 215.552 208.018 209.856 211.178L139.498 249.992C133.193 253.472 126.136 255.212 119.078 255.212L119.222 255.177Z" fill="#FC5200"/>
</svg>
